PathFileType	4	(X/Y/Z)	C:/Users/opensim2020/Desktop/walking_exp_matlab/subject03_walking11_straight_03.trc	
DataRate	CameraRate	NumFrames	NumMarkers	Units	OrigDataRate	OrigDataStartFrame	OrigNumFrames	
100.00	100.00	9	46	mm	100.00	3072	380	
Frame#	Time	LFHD			RFHD			LBHD			RBHD			C7			T10			CLAV			STRN			RBAK			LSHO			LUPA			LELB			LFRM			LWRA			LWRB			LFIN			RSHO			RUPA			RELB			RFRM			RWRA			RWRB			RFIN			LASI			RASI			LPSI			RPSI			LTHI			LKNE			LTIB			LANK			LHEE			LTOE			RTHI			RKNE			RTIB			RANK			RHEE			RTOE			*39			*40			*41			*42			*43			*44			*45			
		X1	Y1	Z1	X2	Y2	Z2	X3	Y3	Z3	X4	Y4	Z4	X5	Y5	Z5	X6	Y6	Z6	X7	Y7	Z7	X8	Y8	Z8	X9	Y9	Z9	X10	Y10	Z10	X11	Y11	Z11	X12	Y12	Z12	X13	Y13	Z13	X14	Y14	Z14	X15	Y15	Z15	X16	Y16	Z16	X17	Y17	Z17	X18	Y18	Z18	X19	Y19	Z19	X20	Y20	Z20	X21	Y21	Z21	X22	Y22	Z22	X23	Y23	Z23	X24	Y24	Z24	X25	Y25	Z25	X26	Y26	Z26	X27	Y27	Z27	X28	Y28	Z28	X29	Y29	Z29	X30	Y30	Z30	X31	Y31	Z31	X32	Y32	Z32	X33	Y33	Z33	X34	Y34	Z34	X35	Y35	Z35	X36	Y36	Z36	X37	Y37	Z37	X38	Y38	Z38	X39	Y39	Z39	X40	Y40	Z40	X41	Y41	Z41	X42	Y42	Z42	X43	Y43	Z43	X44	Y44	Z44	X45	Y45	Z45	X46	Y46	Z46	

333	3.320	1350.67334	1300.48706	1617.59668	1483.66541	1309.41321	1628.00122	1366.30688	1173.16089	1572.95142	1496.01831	1187.04443	1583.04163	1436.52710	1147.44434	1420.39917	1450.55811	1107.64038	1107.01672	1422.99731	1266.63123	1340.03662	1419.06885	1305.86743	1174.98828	1546.21021	1104.48645	1250.36060	1273.34558	1202.55835	1373.38416	1209.07361	1171.27820	1174.79785	1200.05396	1169.36475	1051.20215	1203.19934	1191.47827	923.02191	1236.83008	1209.40906	806.09113	1186.45630	1183.91858	810.20337	1199.07935	1198.27222	726.79309	1585.77222	1244.71533	1369.86023	1666.95813	1283.02344	1154.53247	1681.31970	1318.93262	1048.30505	1685.43787	1360.77087	917.69336	1648.63049	1400.56628	827.36389	1698.44971	1379.20605	820.59924	1687.19409	1413.99597	754.41431	1319.58936	1267.28577	943.55151	1556.41394	1289.71692	943.90302	1381.68042	1109.30676	958.17413	1530.08521	1124.76965	972.81488	1266.83252	1293.25452	651.03967	1292.88098	1359.15686	484.27371	1301.03113	1295.31946	295.67590	1344.98389	1260.78723	90.72015	1389.07361	1220.89819	56.99609	1347.29846	1401.08533	47.35872	1592.60364	1222.04199	648.26123	1554.24609	1217.63855	468.95679	1556.09509	1152.96594	287.26114	1504.04028	1100.99536	77.92255	1454.52698	1053.98169	48.02699	1486.56726	1240.39185	37.00858	1405.24817	1221.34119	1679.18286																		 
334	3.330	1349.84583	1307.77869	1616.93872	1482.81860	1316.90137	1627.41101	1365.67834	1180.50415	1572.53101	1495.45447	1194.49744	1582.65942	1436.30212	1154.60852	1420.01978	1449.98523	1114.34595	1106.69202	1422.44971	1273.61816	1339.47168	1418.63721	1312.57507	1174.34534	1546.18079	1111.59546	1250.08264	1272.94299	1208.90625	1372.81384	1208.96741	1176.04138	1174.16626	1199.99683	1173.93433	1050.83948	1203.41650	1195.68860	922.41626	1237.14783	1213.53149	805.55109	1186.89038	1187.93201	809.57947	1199.50464	1202.36365	726.26630	1585.19666	1252.33643	1369.40833	1666.40100	1291.61072	1154.36316	1680.49219	1328.17822	1048.33582	1684.15356	1371.11865	918.11060	1646.91748	1411.54492	828.31274	1696.64795	1390.52051	821.17334	1685.14685	1425.89355	755.40112	1319.31665	1274.19812	942.76233	1556.28247	1295.89136	943.20691	1380.99695	1116.06348	957.85706	1529.41711	1131.03003	972.42969	1266.74292	1299.53186	650.13824	1293.90466	1366.71118	484.13797	1301.48169	1310.83032	293.25055	1345.02136	1286.68420	86.67195	1389.25562	1248.10754	51.35049	1347.21033	1428.64539	48.64680	1592.33472	1226.04761	648.00244	1554.21631	1219.89294	468.76788	1556.13562	1154.10205	287.55710	1503.57849	1100.66077	78.10260	1454.45862	1053.80188	48.74334	1486.60010	1240.41455	36.95108	1404.01489	1228.79932	1678.47754																		 
335	3.340	1348.95300	1314.97632	1616.19641	1481.92896	1324.37024	1626.78564	1365.02783	1187.68091	1571.87622	1494.78052	1201.93640	1582.20142	1435.93335	1161.63928	1419.49121	1449.33032	1121.06604	1106.25427	1421.80969	1280.58130	1338.81567	1418.22180	1319.33655	1173.68225	1545.94775	1118.75085	1249.73572	1272.49402	1215.38110	1372.22217	1208.73657	1181.17542	1173.71057	1199.84778	1178.64209	1050.28503	1203.57104	1200.15356	921.83832	1237.43079	1217.83618	804.85669	1187.62085	1191.87927	808.76752	1199.94177	1206.54065	725.71179	1584.58630	1259.87891	1368.88770	1665.83960	1300.10583	1154.17554	1679.70642	1337.26489	1048.28308	1682.76550	1381.24524	918.45435	1644.96753	1422.19519	829.11151	1694.51062	1401.45459	821.15149	1682.91956	1437.62158	756.33606	1319.09167	1281.22864	942.02234	1556.17017	1302.17273	942.61078	1380.02966	1122.88147	957.12592	1528.66467	1137.32007	971.99091	1266.81494	1305.08777	648.82513	1295.24731	1373.42334	483.40961	1302.13928	1326.07300	291.06143	1345.02002	1311.67029	83.07923	1389.25000	1274.92419	46.73208	1347.24841	1455.56409	50.03505	1592.15186	1230.09485	647.73608	1554.24390	1222.32288	468.63062	1556.09827	1155.17944	287.81345	1503.56030	1100.82251	78.59656	1454.31067	1053.89929	49.44119	1486.52869	1240.24768	36.74955	1408.71350	1235.33740	1679.08618																		 
336	3.350	1348.05505	1322.27905	1615.45923	1480.98792	1331.81702	1626.15466	1364.40637	1194.94421	1571.39832	1494.06104	1209.33948	1581.67004	1435.56445	1168.77393	1419.03601	1448.58264	1127.82935	1105.88550	1421.23999	1287.65735	1338.19849	1417.73901	1326.12402	1172.99329	1545.87793	1125.85181	1249.70776	1271.92566	1221.91650	1371.58008	1208.56482	1186.32153	1173.14270	1199.79736	1183.33728	1049.48267	1203.90527	1204.76270	921.14532	1237.92249	1222.12744	804.32739	1188.12329	1196.07581	808.04407	1200.30042	1210.82813	725.12390	1583.97180	1267.29370	1368.32825	1666.75208	1310.66516	1154.78076	1678.59375	1346.04553	1048.04846	1681.29333	1391.21143	918.67365	1643.07019	1432.74329	829.94379	1692.19934	1412.29370	821.27539	1680.62354	1449.09790	757.21484	1318.70251	1288.24438	941.13477	1555.93762	1308.42908	941.99506	1379.15625	1129.70691	956.53900	1527.81958	1143.70410	971.59290	1266.54333	1310.30737	647.21741	1296.62732	1379.82080	482.43021	1302.92358	1340.79626	289.12531	1344.76746	1336.37781	80.44947	1389.01428	1301.10791	43.00449	1347.29382	1481.72205	51.33920	1591.96021	1234.28235	647.53662	1554.26001	1224.86707	468.47351	1555.97815	1156.32031	288.07852	1503.82703	1101.20483	79.18550	1454.08948	1054.04797	50.37394	1486.85974	1240.59448	36.93742	1402.42273	1243.65381	1677.52405																		 
337	3.360	1346.62720	1329.14063	1614.59680	1480.06311	1339.26392	1625.51147	1363.76843	1202.12512	1570.68970	1493.36194	1216.74780	1581.16040	1435.07739	1175.98389	1418.46790	1447.75269	1134.64954	1105.32446	1420.61548	1294.71436	1337.51550	1417.23047	1332.98181	1172.24011	1545.37341	1132.85742	1249.13074	1271.37683	1228.58813	1370.93677	1208.33313	1191.70642	1172.60657	1199.77356	1188.50781	1048.90796	1203.77136	1209.43750	920.40314	1238.11438	1226.78088	803.43481	1188.49316	1200.43066	807.33533	1200.60938	1215.12659	724.45697	1583.30542	1274.71143	1367.70728	1664.38306	1316.52954	1153.38330	1677.64624	1354.72351	1047.83203	1679.68384	1400.94641	918.79639	1640.93115	1443.07898	830.62000	1690.35828	1422.97314	821.69287	1678.07092	1460.23706	757.90521	1318.23206	1295.29773	940.18549	1555.64868	1314.80408	941.42834	1378.16309	1136.62671	955.84198	1526.96375	1150.12549	971.12286	1266.60938	1314.90930	645.27100	1297.87830	1386.03113	481.47757	1303.82788	1354.63013	287.37396	1344.43652	1360.30859	78.40089	1388.70776	1326.49292	40.34992	1347.41003	1507.18164	52.57629	1591.89270	1238.58154	647.37250	1554.35767	1227.68237	468.39325	1555.86084	1157.65723	288.38879	1503.60669	1101.34326	79.70586	1453.84644	1054.22864	51.25368	1486.93481	1240.61755	36.87250	1406.59143	1250.16980	1677.73889																		 
338	3.370	1346.18970	1336.72107	1613.91553	1479.15076	1346.67810	1624.83398	1362.99768	1209.36365	1570.01428	1492.63013	1224.17822	1580.65967	1434.55188	1183.14185	1417.85620	1446.87061	1141.48914	1104.74988	1419.98071	1301.84265	1336.84949	1416.65576	1339.95251	1171.51575	1544.84045	1139.95874	1248.60498	1270.76501	1235.32434	1370.21082	1208.12781	1197.31873	1171.83496	1199.82776	1193.44531	1048.27600	1203.86279	1214.41003	919.67804	1238.27539	1231.61584	802.88342	1188.76782	1204.94312	806.64252	1200.87500	1219.52979	723.74634	1582.60571	1282.05420	1367.02173	1663.50708	1324.52393	1152.83765	1676.64758	1363.22205	1047.51294	1678.02966	1410.47656	918.88660	1638.52234	1453.01025	831.07312	1688.16321	1433.31848	821.91351	1675.58911	1471.18701	758.68774	1317.71570	1302.46887	939.19623	1555.32739	1321.23657	940.85370	1377.49231	1143.51099	955.51306	1526.05750	1156.58411	970.68353	1266.65845	1319.43054	643.32288	1299.35718	1391.69434	480.25146	1304.54248	1367.66724	286.01416	1343.92273	1383.46118	77.11472	1388.29102	1350.95874	38.70822	1347.47876	1531.51685	53.62101	1591.65149	1242.98047	647.08429	1554.26746	1230.58313	468.18213	1555.76233	1159.05798	288.75418	1503.47473	1101.47058	80.17218	1453.61670	1054.35986	52.10367	1487.02393	1240.67334	36.82535	1400.43420	1258.44226	1676.32336																		 
339	3.380	1344.67834	1343.53394	1612.99915	1478.17163	1354.15125	1624.17810	1362.30139	1216.50928	1569.41382	1491.81201	1231.53491	1580.06787	1433.94543	1190.40137	1417.24536	1445.91211	1148.47876	1104.17798	1419.28870	1309.02026	1336.17761	1416.01660	1346.94385	1170.76746	1544.21497	1146.97437	1248.03979	1270.10132	1242.28223	1369.59058	1207.92017	1203.18652	1171.32959	1199.90320	1198.76770	1047.64282	1203.81348	1219.47998	918.85266	1238.32068	1236.62524	802.10632	1189.08618	1209.58472	805.86676	1201.11829	1223.97644	722.96826	1581.89539	1289.33069	1366.33643	1664.89087	1335.18799	1153.63000	1675.76392	1371.57031	1047.21692	1676.24915	1419.74817	918.86591	1636.12866	1462.84534	831.58215	1685.62988	1443.38281	821.91815	1672.89539	1481.80981	759.26172	1317.27148	1309.77087	938.27795	1554.79138	1327.90906	940.34973	1376.13782	1150.66638	954.37067	1525.09961	1163.12341	970.24286	1266.58423	1323.85388	641.27106	1300.68250	1396.97803	478.88623	1305.39734	1379.87732	284.77899	1343.39587	1405.40161	76.32449	1387.90625	1374.23096	37.85429	1347.32996	1554.68958	54.94334	1591.42236	1247.43188	646.78687	1554.32788	1233.78687	468.07339	1555.58606	1160.60571	289.10367	1503.36462	1101.80298	81.05461	1453.31299	1054.51599	53.00121	1487.07214	1240.65564	36.62650	1399.37756	1265.82971	1675.67798																		 
340	3.390	1344.11438	1351.04431	1612.28186	1477.03735	1361.45239	1623.49023	1361.53162	1223.66028	1568.67932	1491.01306	1238.86731	1579.53186	1433.25842	1197.63367	1416.66138	1444.86523	1155.51709	1103.50586	1418.56104	1316.22375	1335.44446	1415.39124	1354.03955	1170.03906	1543.45471	1154.00391	1247.53430	1269.30847	1249.42188	1368.92981	1207.63489	1209.28674	1170.49377	1199.79187	1204.48999	1046.93115	1203.78381	1224.80701	918.13843	1238.13037	1242.01355	801.28711	1189.27954	1214.33484	805.11279	1201.35107	1228.58105	722.14801	1581.12146	1296.57910	1365.63745	1661.87354	1340.18811	1151.77124	1674.51147	1379.69580	1046.71033	1674.39771	1428.80640	918.77881	1634.16162	1472.85339	832.30121	1683.41113	1453.23193	822.09204	1670.04993	1492.14441	759.75635	1316.73987	1317.04175	937.32874	1554.09375	1334.80701	939.96521	1375.24231	1157.94128	954.04193	1524.08276	1169.66931	969.77649	1266.36536	1328.41150	639.34729	1301.95923	1402.09717	477.49802	1306.29346	1391.45654	283.60025	1342.85730	1425.87427	76.06089	1387.47791	1396.12720	37.32438	1347.00354	1576.55627	57.08720	1591.15039	1252.05005	646.54803	1554.25232	1237.12207	467.85608	1555.45532	1162.37012	289.49106	1502.68286	1101.48718	81.10550	1453.06421	1054.74316	53.99488	1487.00879	1240.59436	36.27544	1398.45032	1273.22974	1675.16028																		 
341	3.400	1343.05530	1358.23169	1611.51978	1476.05518	1368.82166	1622.83350	1360.68469	1230.82800	1567.97742	1490.12732	1246.21948	1578.96545	1432.34314	1204.89294	1415.90063	1443.95398	1162.52209	1103.12256	1417.79016	1323.42920	1334.74890	1414.71252	1361.12415	1169.31384	1542.65869	1161.00793	1246.97266	1268.24573	1256.06213	1367.99048	1207.42700	1215.85315	1169.88940	1199.81055	1210.30786	1046.19446	1203.66431	1230.24500	917.27240	1238.09119	1247.40393	800.50037	1189.58643	1219.23877	804.25903	1201.50232	1233.28650	721.29456	1580.31311	1303.78442	1364.96155	1660.95911	1347.82043	1151.19421	1673.28564	1387.65332	1046.20349	1672.44788	1437.62842	918.58380	1630.61536	1481.46277	832.01361	1680.86133	1462.77429	822.05975	1667.12512	1502.18774	760.17957	1316.15894	1324.35632	936.25970	1553.82458	1341.08020	939.11157	1374.08594	1165.06274	953.38263	1522.99536	1176.29138	969.24310	1265.95508	1333.34375	637.56567	1303.30542	1406.95801	475.90848	1307.40063	1402.29077	282.55020	1342.19971	1444.83704	76.09852	1387.04761	1416.60156	37.25253	1346.47583	1596.68848	59.76373	1590.87500	1256.70996	646.32062	1554.23218	1240.87146	467.59879	1555.34167	1164.34644	289.88025	1502.63513	1101.81555	81.86597	1452.93945	1054.98083	55.09753	1487.13269	1240.67834	36.23755	1397.09973	1280.51465	1674.37842																		 
